<?xml version="1.0" standalone="no"?>
<!DOCTYPE svg PUBLIC "-//W3C//DTD SVG 20010904//EN"
 "http://www.w3.org/TR/2001/REC-SVG-20010904/DTD/svg10.dtd">
<svg version="1.0" xmlns="http://www.w3.org/2000/svg"
 width="739.000000pt" height="739.000000pt" viewBox="0 0 739.000000 739.000000"
 preserveAspectRatio="xMidYMid meet">

<g transform="translate(0.000000,739.000000) scale(0.100000,-0.100000)"
fill="#000000" stroke="none">
<path d="M3445 7364 c-490 -46 -818 -126 -1205 -292 -1050 -450 -1835 -1374
-2114 -2487 -77 -307 -101 -520 -101 -890 0 -370 24 -583 101 -890 340 -1359
1434 -2418 2794 -2704 291 -61 443 -76 785 -75 254 0 324 3 459 22 590 83
1100 275 1570 590 209 140 363 267 557 461 310 311 512 593 703 981 181 368
290 730 348 1162 32 235 32 671 0 906 -95 702 -348 1300 -781 1847 -121 154
-411 444 -567 568 -535 426 -1139 683 -1825 777 -117 17 -218 23 -419 25 -146
2 -283 1 -305 -1z m310 -1635 c35 -9 158 -128 903 -872 475 -474 870 -874 878
-889 8 -15 14 -51 14 -80 0 -68 -31 -125 -85 -155 l-40 -23 -542 0 -543 0 0
-867 c0 -851 0 -867 -20 -909 -12 -24 -39 -54 -62 -70 l-41 -29 -527 0 -527 0
-41 29 c-23 16 -50 46 -62 70 -20 42 -20 58 -20 909 l0 867 -542 0 -543 0 -40
23 c-54 31 -85 87 -85 157 0 36 6 65 18 85 33 54 1729 1729 1769 1747 44 20
82 22 138 7z"/>
</g>
</svg>
