<?xml version="1.0" encoding="UTF-8" standalone="no"?>
<!-- Created with Inkscape (http://www.inkscape.org/) -->

<svg
   xmlns:dc="http://purl.org/dc/elements/1.1/"
   xmlns:cc="http://creativecommons.org/ns#"
   xmlns:rdf="http://www.w3.org/1999/02/22-rdf-syntax-ns#"
   xmlns:svg="http://www.w3.org/2000/svg"
   xmlns="http://www.w3.org/2000/svg"
   xmlns:sodipodi="http://sodipodi.sourceforge.net/DTD/sodipodi-0.dtd"
   xmlns:inkscape="http://www.inkscape.org/namespaces/inkscape"
   id="svg2"
   version="1.1"
   inkscape:version="0.91 r13725"
   xml:space="preserve"
   width="1690.9434"
   height="223.10878"
   viewBox="0 0 1690.9432 223.10879"
   sodipodi:docname="poweredBySakai.svg"
   inkscape:export-xdpi="7.185338"
   inkscape:export-ydpi="7.185338"><metadata
     id="metadata8"><rdf:RDF><cc:Work
         rdf:about=""><dc:format>image/svg+xml</dc:format><dc:type
           rdf:resource="http://purl.org/dc/dcmitype/StillImage" /><dc:title></dc:title></cc:Work></rdf:RDF></metadata><defs
     id="defs6"><clipPath
       clipPathUnits="userSpaceOnUse"
       id="clipPath16"><path
         d="m 0,595.28 841.89,0 L 841.89,0 0,0 0,595.28 Z"
         id="path18"
         inkscape:connector-curvature="0" /></clipPath></defs><sodipodi:namedview
     pagecolor="#ffffff"
     bordercolor="#666666"
     borderopacity="1"
     objecttolerance="10"
     gridtolerance="10"
     guidetolerance="10"
     inkscape:pageopacity="0"
     inkscape:pageshadow="2"
     inkscape:window-width="1920"
     inkscape:window-height="1155"
     id="namedview4"
     showgrid="false"
     inkscape:zoom="0.31716168"
     inkscape:cx="335.08771"
     inkscape:cy="-1035.1391"
     inkscape:window-x="0"
     inkscape:window-y="23"
     inkscape:window-maximized="1"
     inkscape:current-layer="text4933"
     fit-margin-top="0"
     fit-margin-left="2.5"
     fit-margin-right="0"
     fit-margin-bottom="0" /><g
     id="g10"
     inkscape:groupmode="layer"
     inkscape:label="SakaiProject_logo215"
     transform="matrix(1.25,0,0,-1.25,758.2035,474.024)"><g
       id="g12"><g
         id="g14"
         clip-path="url(#clipPath16)"><g
           id="g20"
           transform="translate(422.5254,288.5469)"><path
             d="m 0,0 c -3.24,3.108 -7.288,5.875 -12.051,8.22 -4.634,2.284 -10.019,4.431 -16.021,6.39 -10.138,3.216 -17.406,6.914 -21.608,11.002 -4.06,3.941 -6.033,8.933 -6.033,15.268 0,2.281 0.472,4.73 1.399,7.286 0.913,2.501 2.45,4.876 4.584,7.061 2.124,2.188 5.023,4.014 8.611,5.427 3.624,1.422 8.226,2.147 13.685,2.147 6.117,0 11.323,-0.761 15.475,-2.266 4.203,-1.523 7.157,-2.881 8.783,-4.042 l 2.304,-1.643 5.698,12.318 -1.707,1.111 c -2.799,1.816 -6.67,3.39 -11.821,4.818 -5.065,1.394 -11.24,2.106 -18.346,2.106 -6.272,0 -12.035,-0.886 -17.136,-2.635 -5.129,-1.752 -9.662,-4.261 -13.461,-7.45 -3.835,-3.216 -6.827,-7.047 -8.891,-11.382 -2.074,-4.345 -3.119,-9.126 -3.119,-14.204 0,-9.09 3.083,-16.774 9.161,-22.848 5.895,-5.9 15.613,-11.021 28.844,-15.205 5.286,-1.773 9.772,-3.598 13.342,-5.452 3.473,-1.789 6.308,-3.835 8.433,-6.074 2.064,-2.175 3.573,-4.616 4.49,-7.249 0.936,-2.688 1.409,-5.808 1.409,-9.239 0,-7.434 -2.651,-13.269 -8.116,-17.848 -5.5,-4.624 -13.323,-6.965 -23.242,-6.965 -6.033,0 -11.722,0.835 -16.911,2.487 -5.202,1.652 -9.886,3.919 -13.91,6.725 l -2.299,1.599 -5.648,-12.187 1.551,-1.136 c 2.056,-1.505 4.533,-2.919 7.355,-4.185 2.771,-1.267 5.808,-2.341 9.024,-3.212 3.134,-0.852 6.437,-1.522 9.832,-1.991 3.363,-0.46 6.68,-0.697 9.85,-0.697 7.932,0 14.915,1.091 20.751,3.229 5.854,2.149 10.763,5.074 14.573,8.681 3.836,3.633 6.688,7.818 8.477,12.414 1.761,4.569 2.661,9.295 2.661,14.049 0,5.532 -0.835,10.431 -2.479,14.543 C 5.834,-6.882 3.312,-3.175 0,0"
             style="fill:#000000;fill-opacity:1;fill-rule:nonzero;stroke:none"
             id="path22"
             inkscape:connector-curvature="0" /></g><g
           id="g24"
           transform="translate(508.1133,276.2607)"><path
             d="m 0,0 0,-17.333 c 0,-1.359 -0.33,-2.882 -0.962,-4.45 -0.817,-1.881 -2.028,-3.9 -3.58,-5.991 -1.514,-2.038 -3.477,-3.9 -5.817,-5.552 -2.385,-1.66 -5.24,-3.093 -8.487,-4.231 -3.193,-1.128 -6.947,-1.697 -11.168,-1.697 -4.89,0 -9.047,1.414 -12.698,4.304 -3.478,2.761 -5.176,6.954 -5.176,12.801 0,4.796 1.358,8.513 4.147,11.358 2.928,2.992 6.773,5.332 11.416,6.937 4.799,1.661 10.277,2.752 16.277,3.249 C -11.121,-0.201 -6.156,0 -1.274,0 L 0,0 Z m 14.13,-14.112 0,22.977 c 0,3.697 -0.366,7.934 -1.081,12.586 -0.753,4.84 -2.414,9.404 -4.938,13.575 -2.568,4.239 -6.376,7.846 -11.322,10.726 -4.964,2.9 -11.653,4.368 -19.866,4.368 -2.669,0 -5.432,-0.202 -8.23,-0.601 l -2.405,-0.344 0.422,-2.39 c 0.387,-2.156 0.762,-4.689 1.148,-7.598 l 0.292,-2.307 2.314,0.279 c 0.981,0.119 1.945,0.211 2.863,0.276 0.908,0.059 1.854,0.091 2.825,0.091 5.681,0 10.121,-0.981 13.196,-2.913 3.129,-1.968 5.487,-4.317 7.01,-6.983 1.578,-2.743 2.586,-5.574 2.991,-8.41 0.413,-2.872 0.625,-5.098 0.651,-6.65 l -0.191,0 c -20.628,0 -36.163,-3.129 -46.174,-9.312 -10.772,-6.662 -16.24,-15.791 -16.24,-27.143 0,-3.78 0.88,-7.671 2.615,-11.552 1.77,-3.963 4.661,-7.396 8.58,-10.193 1.954,-1.395 4.118,-2.59 6.449,-3.542 2.367,-0.964 5.021,-1.67 8.268,-2.074 0.954,-0.138 1.898,-0.238 2.853,-0.313 0.954,-0.064 1.973,-0.1 3.056,-0.1 4.441,0 8.606,0.55 12.396,1.633 3.772,1.083 7.194,2.523 10.186,4.285 2.954,1.742 6.157,3.68 8.394,5.643 2.35,2.057 5.331,6.382 5.773,7.043 C 9.487,-42.649 20.26,-51.26 20.26,-51.26 l 8.901,9.988 c 0,0 -15.031,12.282 -15.031,27.16"
             style="fill:#000000;fill-opacity:1;fill-rule:nonzero;stroke:none"
             id="path26"
             inkscape:connector-curvature="0" /></g><g
           id="g28"
           transform="translate(688.2012,276.2607)"><path
             d="m 0,0 0,-17.333 c 0,-1.359 -0.33,-2.882 -0.955,-4.45 -0.826,-1.881 -2.037,-3.9 -3.587,-5.991 -1.514,-2.038 -3.468,-3.9 -5.817,-5.552 -2.386,-1.66 -5.24,-3.093 -8.489,-4.231 -3.193,-1.128 -6.945,-1.697 -11.157,-1.697 -4.899,0 -9.056,1.414 -12.7,4.304 -3.486,2.761 -5.184,6.954 -5.184,12.801 0,4.796 1.359,8.513 4.148,11.358 2.928,2.992 6.771,5.332 11.414,6.937 4.808,1.661 10.286,2.752 16.278,3.249 C -11.121,-0.201 -6.156,0 -1.266,0 L 0,0 Z m 14.139,-14.112 0,22.977 c 0,3.697 -0.367,7.934 -1.092,12.586 -0.752,4.84 -2.403,9.404 -4.927,13.575 -2.579,4.239 -6.387,7.846 -11.322,10.726 -4.974,2.9 -11.653,4.368 -19.875,4.368 -2.66,0 -5.432,-0.202 -8.232,-0.601 l -2.394,-0.344 0.422,-2.39 c 0.377,-2.156 0.753,-4.689 1.138,-7.598 l 0.303,-2.307 2.302,0.279 c 0.992,0.119 1.947,0.211 2.863,0.276 0.909,0.059 1.854,0.091 2.827,0.091 5.689,0 10.121,-0.981 13.194,-2.913 3.129,-1.968 5.487,-4.317 7.021,-6.983 1.577,-2.743 2.577,-5.574 2.982,-8.41 C -0.238,16.348 -0.02,14.122 0,12.57 l -0.185,0 c -20.626,0 -36.169,-3.129 -46.18,-9.312 -10.773,-6.662 -16.232,-15.791 -16.232,-27.143 0,-3.78 0.871,-7.671 2.605,-11.552 1.771,-3.963 4.663,-7.396 8.58,-10.193 1.954,-1.395 4.129,-2.59 6.451,-3.542 2.367,-0.964 5.019,-1.67 8.276,-2.074 0.946,-0.138 1.89,-0.238 2.844,-0.313 0.955,-0.064 1.974,-0.1 3.066,-0.1 4.43,0 8.597,0.55 12.396,1.633 3.761,1.083 7.193,2.523 10.175,4.285 2.955,1.742 6.157,3.68 8.405,5.643 2.35,2.057 5.331,6.382 5.772,7.043 C 9.496,-42.649 20.26,-51.26 20.26,-51.26 l 8.909,9.988 c 0,0 -15.03,12.282 -15.03,27.16"
             style="fill:#000000;fill-opacity:1;fill-rule:nonzero;stroke:none"
             id="path30"
             inkscape:connector-curvature="0" /></g><g
           id="g32"
           transform="translate(619.3828,316.9805)"><path
             d="m 0,0 -10.186,9.005 -38.496,-36.438 c -1.706,-1.579 -3.55,-3.414 -5.524,-5.515 -0.385,-0.412 -0.762,-0.826 -1.128,-1.211 l 0,86.708 -14.141,0 0,-142.614 14.141,0 0,40.068 53.371,-44.941 8.616,9.781 -51.682,43.455 L 0,0 Z"
             style="fill:#000000;fill-opacity:1;fill-rule:nonzero;stroke:none"
             id="path34"
             inkscape:connector-curvature="0" /></g><g
           id="g36"
           transform="translate(743.3838,358.3306)"><path
             d="m 0,0 c -3.854,4.363 -10.552,4.381 -14.563,0.037 -1.944,-2.111 -2.936,-4.588 -2.936,-7.369 0,-2.752 0.909,-5.207 2.68,-7.294 1.836,-2.184 4.386,-3.335 7.377,-3.335 3.148,0 5.699,1.119 7.579,3.335 1.771,2.101 2.671,4.556 2.671,7.294 C 2.808,-4.578 1.862,-2.11 0,0"
             style="fill:#000000;fill-opacity:1;fill-rule:nonzero;stroke:none"
             id="path38"
             inkscape:connector-curvature="0" /></g><path
           d="m 729.758,226.915 14.131,0 0,97.154 -14.131,0 0,-97.154 z"
           style="fill:#000000;fill-opacity:1;fill-rule:nonzero;stroke:none"
           id="path40"
           inkscape:connector-curvature="0" /><g
           id="g42"
           transform="translate(280.3794,288.4824)"><path
             d="m 0,0 c 13.814,-5.478 22.209,-12.69 22.209,-20.612 0,-17.136 -39.317,-31.037 -87.802,-31.037 -48.493,0 -87.821,13.901 -87.821,31.037 0,7.922 8.396,15.134 22.22,20.612 -32.923,-7.028 -54.702,-19.213 -54.702,-33.143 0,-21.792 53.849,-39.473 120.303,-39.473 66.428,0 120.303,17.681 120.303,39.473 C 54.71,-19.213 32.932,-7.028 0,0"
             style="fill:#27aae1;fill-opacity:1;fill-rule:nonzero;stroke:none"
             id="path44"
             inkscape:connector-curvature="0" /></g><g
           id="g46"
           transform="translate(249.1401,291.3145)"><path
             d="m 0,0 c 7.227,-2.872 11.626,-6.676 11.626,-10.833 0,-8.955 -20.599,-16.231 -45.98,-16.231 -25.407,0 -45.998,7.276 -45.998,16.231 0,4.157 4.4,7.961 11.635,10.833 -17.25,-3.723 -28.646,-10.137 -28.646,-17.376 0,-11.433 28.206,-20.678 63.009,-20.678 34.776,0 62.992,9.245 62.992,20.678 C 28.638,-10.137 17.232,-3.723 0,0"
             style="fill:#27aae1;fill-opacity:1;fill-rule:nonzero;stroke:none"
             id="path48"
             inkscape:connector-curvature="0" /></g><g
           id="g50"
           transform="translate(214.7778,323.8252)"><path
             d="m 0,0 c -1.945,0 -3.524,1.578 -3.524,3.524 l 0,48.347 c 0,1.945 1.579,3.523 3.524,3.523 1.945,0 3.523,-1.578 3.523,-3.523 l 0,-48.347 C 3.523,1.578 1.945,0 0,0"
             style="fill:#27aae1;fill-opacity:1;fill-rule:nonzero;stroke:none"
             id="path52"
             inkscape:connector-curvature="0" /></g><g
           id="g54"
           transform="translate(232.3467,318.2856)"><path
             d="M 0,0 C -0.699,0 -1.404,0.207 -2.019,0.638 -3.613,1.752 -4.001,3.95 -2.883,5.544 l 27.731,39.602 c 1.117,1.598 3.312,1.98 4.907,0.866 1.594,-1.116 1.982,-3.313 0.864,-4.908 L 2.888,1.502 C 2.202,0.523 1.11,0 0,0"
             style="fill:#27aae1;fill-opacity:1;fill-rule:nonzero;stroke:none"
             id="path56"
             inkscape:connector-curvature="0" /></g><g
           id="g58"
           transform="translate(243.5659,303.6729)"><path
             d="m 0,0 c -1.438,0 -2.789,0.888 -3.31,2.319 -0.667,1.829 0.277,3.85 2.106,4.515 l 45.432,16.534 c 1.828,0.666 3.846,-0.274 4.514,-2.105 0.668,-1.828 -0.278,-3.849 -2.106,-4.515 L 1.205,0.213 C 0.808,0.069 0.402,0 0,0"
             style="fill:#27aae1;fill-opacity:1;fill-rule:nonzero;stroke:none"
             id="path60"
             inkscape:connector-curvature="0" /></g><g
           id="g62"
           transform="translate(197.208,318.2856)"><path
             d="m 0,0 c -1.11,0 -2.202,0.523 -2.888,1.502 l -27.729,39.602 c -1.117,1.595 -0.729,3.792 0.865,4.908 1.59,1.114 3.79,0.732 4.907,-0.866 L 2.884,5.544 C 4.001,3.95 3.613,1.752 2.019,0.638 1.404,0.207 0.7,0 0,0"
             style="fill:#27aae1;fill-opacity:1;fill-rule:nonzero;stroke:none"
             id="path64"
             inkscape:connector-curvature="0" /></g><g
           id="g66"
           transform="translate(185.9932,303.6685)"><path
             d="M 0,0 C -0.401,0 -0.808,0.069 -1.204,0.213 L -46.633,16.75 c -1.831,0.666 -2.774,2.687 -2.106,4.515 0.668,1.831 2.698,2.769 4.514,2.106 L 1.205,6.833 C 3.035,6.169 3.978,4.147 3.311,2.319 2.789,0.888 1.439,0 0,0"
             style="fill:#27aae1;fill-opacity:1;fill-rule:nonzero;stroke:none"
             id="path68"
             inkscape:connector-curvature="0" /></g></g></g><g
       transform="scale(1,-1)"
       style="font-style:normal;font-weight:normal;font-size:10px;line-height:100%;font-family:sans-serif;letter-spacing:0px;word-spacing:0px;fill:#000000;fill-opacity:1;stroke:none;stroke-width:1px;stroke-linecap:butt;stroke-linejoin:miter;stroke-opacity:1"
       id="text4933"><path
         d="m -593.16285,-270.21217 0,-31.44 22.32,0 q 9.72,0 14.16,4.08 4.56,3.96 4.56,11.64 0,7.68 -4.56,11.76 -4.44,4.08 -14.16,3.96 l -22.32,0 z m -11.4,-41.04 0,85.68 11.4,0 0,-35.04 26.16,0 q 12.96,0.12 19.56,-6.6 6.72,-6.72 6.72,-18.72 0,-12 -6.72,-18.6 -6.6,-6.72 -19.56,-6.72 l -37.56,0 z"
         style="font-style:normal;font-variant:normal;font-weight:normal;font-stretch:normal;font-size:120px;line-height:100%;font-family:'Helvetica Neue';-inkscape-font-specification:'Helvetica Neue';letter-spacing:0px"
         id="path4167" /><path
         d="m -520.99035,-256.53217 q 0,-5.64 1.44,-9.96 1.56,-4.44 4.2,-7.44 2.64,-3 6.12,-4.56 3.6,-1.56 7.56,-1.56 3.96,0 7.44,1.56 3.6,1.56 6.24,4.56 2.64,3 4.08,7.44 1.56,4.32 1.56,9.96 0,5.64 -1.56,10.08 -1.44,4.32 -4.08,7.32 -2.64,2.88 -6.24,4.44 -3.48,1.56 -7.44,1.56 -3.96,0 -7.56,-1.56 -3.48,-1.56 -6.12,-4.44 -2.64,-3 -4.2,-7.32 -1.44,-4.44 -1.44,-10.08 z m -10.8,0 q 0,6.84 1.92,12.72 1.92,5.88 5.76,10.32 3.84,4.32 9.48,6.84 5.64,2.4 12.96,2.4 7.44,0 12.96,-2.4 5.64,-2.52 9.48,-6.84 3.84,-4.44 5.76,-10.32 1.92,-5.88 1.92,-12.72 0,-6.84 -1.92,-12.72 -1.92,-6 -5.76,-10.32 -3.84,-4.44 -9.48,-6.96 -5.52,-2.52 -12.96,-2.52 -7.32,0 -12.96,2.52 -5.64,2.52 -9.48,6.96 -3.84,4.32 -5.76,10.32 -1.92,5.88 -1.92,12.72 z"
         style="font-style:normal;font-variant:normal;font-weight:normal;font-stretch:normal;font-size:120px;line-height:100%;font-family:'Helvetica Neue';-inkscape-font-specification:'Helvetica Neue';letter-spacing:0px"
         id="path4169" /><path
         d="m -398.31848,-225.57217 19.8,-62.04 -10.56,0 -13.92,50.76 -0.24,0 -12.96,-50.76 -11.16,0 -12.48,50.76 -0.24,0 -14.04,-50.76 -11.28,0 19.92,62.04 11.04,0 12.48,-49.32 0.24,0 12.6,49.32 10.8,0 z"
         style="font-style:normal;font-variant:normal;font-weight:normal;font-stretch:normal;font-size:120px;line-height:100%;font-family:'Helvetica Neue';-inkscape-font-specification:'Helvetica Neue';letter-spacing:0px"
         id="path4171" /><path
         d="m -325.74098,-262.53217 -35.64,0 q 0.24,-3.6 1.56,-6.72 1.32,-3.24 3.6,-5.64 2.28,-2.4 5.4,-3.72 3.24,-1.44 7.2,-1.44 3.84,0 6.96,1.44 3.24,1.32 5.52,3.72 2.4,2.28 3.72,5.52 1.44,3.24 1.68,6.84 z m 9.84,17.28 -10.08,0 q -1.32,6.12 -5.52,9.12 -4.08,3 -10.56,3 -5.04,0 -8.76,-1.68 -3.72,-1.68 -6.12,-4.44 -2.4,-2.88 -3.48,-6.48 -1.08,-3.72 -0.96,-7.8 l 46.44,0 q 0.24,-5.64 -1.08,-11.88 -1.2,-6.24 -4.56,-11.52 -3.24,-5.28 -8.76,-8.64 -5.4,-3.48 -13.68,-3.48 -6.36,0 -11.76,2.4 -5.28,2.4 -9.24,6.72 -3.84,4.32 -6,10.2 -2.16,5.88 -2.16,12.96 0.24,7.08 2.04,13.08 1.92,6 5.64,10.32 3.72,4.32 9.12,6.72 5.52,2.4 12.96,2.4 10.56,0 17.52,-5.28 6.96,-5.28 9,-15.72 z"
         style="font-style:normal;font-variant:normal;font-weight:normal;font-stretch:normal;font-size:120px;line-height:100%;font-family:'Helvetica Neue';-inkscape-font-specification:'Helvetica Neue';letter-spacing:0px"
         id="path4173" /><path
         d="m -304.72785,-287.61217 0,62.04 10.2,0 0,-27.6 q 0,-6 1.2,-10.56 1.2,-4.68 3.84,-7.92 2.64,-3.24 6.96,-4.92 4.32,-1.68 10.44,-1.68 l 0,-10.8 q -8.28,-0.24 -13.68,3.36 -5.4,3.6 -9.12,11.16 l -0.24,0 0,-13.08 -9.6,0 z"
         style="font-style:normal;font-variant:normal;font-weight:normal;font-stretch:normal;font-size:120px;line-height:100%;font-family:'Helvetica Neue';-inkscape-font-specification:'Helvetica Neue';letter-spacing:0px"
         id="path4175" /><path
         d="m -223.20191,-262.53217 -35.64,0 q 0.24,-3.6 1.56,-6.72 1.32,-3.24 3.6,-5.64 2.28,-2.4 5.4,-3.72 3.24,-1.44 7.2,-1.44 3.84,0 6.96,1.44 3.24,1.32 5.52,3.72 2.4,2.28 3.72,5.52 1.44,3.24 1.68,6.84 z m 9.84,17.28 -10.08,0 q -1.32,6.12 -5.52,9.12 -4.08,3 -10.56,3 -5.04,0 -8.76,-1.68 -3.72,-1.68 -6.12,-4.44 -2.4,-2.88 -3.48,-6.48 -1.08,-3.72 -0.96,-7.8 l 46.44,0 q 0.24,-5.64 -1.08,-11.88 -1.2,-6.24 -4.56,-11.52 -3.24,-5.28 -8.76,-8.64 -5.4,-3.48 -13.68,-3.48 -6.36,0 -11.76,2.4 -5.28,2.4 -9.24,6.72 -3.84,4.32 -6,10.2 -2.16,5.88 -2.16,12.96 0.24,7.08 2.04,13.08 1.92,6 5.64,10.32 3.72,4.32 9.12,6.72 5.52,2.4 12.96,2.4 10.56,0 17.52,-5.28 6.96,-5.28 9,-15.72 z"
         style="font-style:normal;font-variant:normal;font-weight:normal;font-stretch:normal;font-size:120px;line-height:100%;font-family:'Helvetica Neue';-inkscape-font-specification:'Helvetica Neue';letter-spacing:0px"
         id="path4177" /><path
         d="m -194.2716,-256.05217 q 0,-4.56 0.96,-8.88 0.96,-4.32 3.12,-7.68 2.16,-3.36 5.76,-5.4 3.6,-2.04 8.76,-2.04 5.28,0 9,2.04 3.72,1.92 6,5.16 2.4,3.24 3.48,7.56 1.08,4.2 1.08,8.76 0,4.32 -1.08,8.52 -0.96,4.2 -3.24,7.56 -2.28,3.24 -5.88,5.28 -3.6,2.04 -8.76,2.04 -4.92,0 -8.64,-1.92 -3.6,-1.92 -6,-5.16 -2.28,-3.24 -3.48,-7.32 -1.08,-4.2 -1.08,-8.52 z m 48,30.48 0,-85.68 -10.2,0 0,31.92 -0.24,0 q -1.68,-2.76 -4.2,-4.56 -2.4,-1.92 -5.16,-3 -2.76,-1.2 -5.52,-1.68 -2.76,-0.48 -5.16,-0.48 -7.08,0 -12.48,2.64 -5.28,2.52 -8.88,6.96 -3.48,4.32 -5.28,10.2 -1.68,5.88 -1.68,12.48 0,6.6 1.8,12.48 1.8,5.88 5.28,10.32 3.6,4.44 8.88,7.08 5.4,2.64 12.6,2.64 6.48,0 11.88,-2.28 5.4,-2.28 7.92,-7.44 l 0.24,0 0,8.4 10.2,0 z"
         style="font-style:normal;font-variant:normal;font-weight:normal;font-stretch:normal;font-size:120px;line-height:100%;font-family:'Helvetica Neue';-inkscape-font-specification:'Helvetica Neue';letter-spacing:0px"
         id="path4179" /><path
         d="m -97.054727,-311.25217 0,85.68 10.2,0 0,-8.28 0.24,0 q 1.68,2.76 4.08,4.68 2.52,1.8 5.28,2.88 2.76,1.08 5.52,1.56 2.88,0.48 5.16,0.48 7.08,0 12.36,-2.52 5.4,-2.52 8.88,-6.84 3.6,-4.44 5.28,-10.32 1.8,-5.88 1.8,-12.48 0,-6.6 -1.8,-12.48 -1.8,-5.88 -5.4,-10.32 -3.48,-4.56 -8.88,-7.2 -5.28,-2.64 -12.48,-2.64 -6.48,0 -11.88,2.4 -5.4,2.28 -7.92,7.44 l -0.24,0 0,-32.04 -10.2,0 z m 48,54.12 q 0,4.56 -0.96,8.88 -0.96,4.32 -3.12,7.68 -2.16,3.36 -5.76,5.4 -3.48,2.04 -8.76,2.04 -5.28,0 -9,-1.92 -3.72,-2.04 -6.12,-5.28 -2.28,-3.24 -3.36,-7.44 -1.08,-4.32 -1.08,-8.88 0,-4.32 0.96,-8.52 1.08,-4.2 3.36,-7.44 2.28,-3.36 5.88,-5.4 3.6,-2.04 8.76,-2.04 4.92,0 8.52,1.92 3.72,1.92 6,5.16 2.4,3.24 3.48,7.44 1.2,4.08 1.2,8.4 z"
         style="font-style:normal;font-variant:normal;font-weight:normal;font-stretch:normal;font-size:120px;line-height:100%;font-family:'Helvetica Neue';-inkscape-font-specification:'Helvetica Neue';letter-spacing:0px"
         id="path4181" /><path
         d="m -2.0391016,-217.29217 q -1.8,4.56 -3.6,7.68 -1.68,3.12 -3.84,5.04 -2.0400004,2.04 -4.6800004,2.88 -2.52,0.96 -5.88,0.96 -1.8,0 -3.6,-0.24 -1.8,-0.24 -3.48,-0.84 l 0,-9.36 q 1.32,0.6 3,0.96 1.8,0.48 3,0.48 3.12,0 5.16,-1.56 2.16,-1.44 3.24,-4.2 l 4.2000004,-10.44 -24.6000004,-61.68 11.52,0 18.1200004,50.76 0.24,0 17.3999996,-50.76 10.8,0 -26.9999996,70.32 z"
         style="font-style:normal;font-variant:normal;font-weight:normal;font-stretch:normal;font-size:120px;line-height:100%;font-family:'Helvetica Neue';-inkscape-font-specification:'Helvetica Neue';letter-spacing:0px"
         id="path4183" /></g></g></svg>